<svg xmlns="http://www.w3.org/2000/svg" xmlns:xlink="http://www.w3.org/1999/xlink" width="500" zoomAndPan="magnify" viewBox="0 0 375 374.999991" height="500" preserveAspectRatio="xMidYMid meet" version="1.0"><defs><filter x="0%" y="0%" width="100%" height="100%" id="8b7860b440"><feColorMatrix values="0 0 0 0 1 0 0 0 0 1 0 0 0 0 1 0 0 0 1 0" color-interpolation-filters="sRGB"/></filter><g/><clipPath id="ff09a7d593"><path d="M 26.523438 126.648438 L 114.273438 126.648438 L 114.273438 214.398438 L 26.523438 214.398438 Z M 26.523438 126.648438 " clip-rule="nonzero"/></clipPath><mask id="a2657d1789"><g filter="url(#8b7860b440)"><rect x="-37.5" width="450" fill="#000000" y="-37.499999" height="449.999989" fill-opacity="0.1"/></g></mask><clipPath id="0d1132ef96"><path d="M 0.480469 58 L 82.320312 58 L 82.320312 70.878906 L 0.480469 70.878906 Z M 0.480469 58 " clip-rule="nonzero"/></clipPath><clipPath id="5c13b790cf"><path d="M 0.480469 29 L 82.320312 29 L 82.320312 42 L 0.480469 42 Z M 0.480469 29 " clip-rule="nonzero"/></clipPath><clipPath id="f274656a75"><path d="M 0.480469 0.320312 L 82.320312 0.320312 L 82.320312 13 L 0.480469 13 Z M 0.480469 0.320312 " clip-rule="nonzero"/></clipPath><clipPath id="7e218dd1e9"><rect x="0" width="83" y="0" height="71"/></clipPath><mask id="3b2ac6d250"><g filter="url(#8b7860b440)"><rect x="-37.5" width="450" fill="#000000" y="-37.499999" height="449.999989" fill-opacity="0.1"/></g></mask><clipPath id="5180550139"><path d="M 1 0.320312 L 16 0.320312 L 16 72.320312 L 1 72.320312 Z M 1 0.320312 " clip-rule="nonzero"/></clipPath><clipPath id="7885467893"><rect x="0" width="17" y="0" height="73"/></clipPath></defs><g clip-path="url(#ff09a7d593)"><path fill="#428a9b" d="M 41.730469 130.421875 L 112.710938 130.421875 C 113.742188 130.421875 114.578125 129.585938 114.578125 128.554688 C 114.578125 127.523438 113.742188 126.6875 112.710938 126.6875 L 41.441406 126.6875 C 33.363281 126.6875 26.8125 133.234375 26.8125 141.3125 C 26.8125 149.390625 33.363281 155.941406 41.441406 155.941406 C 33.363281 155.941406 26.8125 162.488281 26.8125 170.566406 C 26.8125 178.644531 33.363281 185.195312 41.441406 185.195312 C 33.1875 185.195312 26.527344 192.03125 26.824219 200.355469 C 27.105469 208.28125 33.863281 214.449219 41.792969 214.449219 L 112.714844 214.449219 C 113.746094 214.449219 114.578125 213.613281 114.578125 212.585938 C 114.578125 211.554688 113.742188 210.71875 112.714844 210.71875 L 41.730469 210.71875 C 35.636719 210.71875 30.449219 205.734375 30.546875 199.640625 C 30.648438 193.71875 35.496094 188.929688 41.445312 188.929688 L 112.714844 188.929688 C 113.746094 188.929688 114.578125 188.09375 114.578125 187.066406 L 114.578125 183.335938 C 114.578125 182.304688 113.742188 181.472656 112.714844 181.472656 L 41.730469 181.472656 C 35.636719 181.472656 30.445312 176.484375 30.546875 170.394531 C 30.644531 164.46875 35.496094 159.683594 41.441406 159.683594 L 112.710938 159.683594 C 113.742188 159.683594 114.578125 158.847656 114.578125 157.816406 L 114.578125 154.085938 C 114.578125 153.054688 113.742188 152.21875 112.710938 152.21875 L 41.4375 152.21875 C 35.492188 152.21875 30.640625 147.429688 30.542969 141.507812 C 30.445312 135.40625 35.636719 130.421875 41.730469 130.421875 Z M 41.730469 130.421875 " fill-opacity="1" fill-rule="nonzero"/></g><path fill="#faf3e4" d="M 41.441406 152.210938 C 35.433594 152.210938 30.546875 147.320312 30.546875 141.316406 C 30.546875 135.308594 35.433594 130.421875 41.441406 130.421875 L 112.042969 130.421875 L 112.042969 152.210938 Z M 112.042969 181.464844 L 112.042969 159.671875 L 41.441406 159.671875 C 35.433594 159.671875 30.546875 164.5625 30.546875 170.566406 C 30.546875 176.574219 35.433594 181.460938 41.441406 181.460938 L 112.042969 181.460938 Z M 112.042969 210.71875 L 112.042969 188.929688 L 41.441406 188.929688 C 35.433594 188.929688 30.546875 193.816406 30.546875 199.824219 C 30.546875 205.832031 35.433594 210.71875 41.441406 210.71875 Z M 112.042969 210.71875 " fill-opacity="1" fill-rule="nonzero"/><g mask="url(#a2657d1789)"><g transform="matrix(1, 0, 0, 1, 30, 130)"><g clip-path="url(#7e218dd1e9)"><g clip-path="url(#0d1132ef96)"><path fill="#000000" d="M 0.542969 69.824219 C 0.542969 70.113281 0.5625 70.398438 0.585938 70.679688 C 1.027344 65.074219 5.722656 60.640625 11.4375 60.640625 L 82.042969 60.640625 L 82.042969 58.925781 L 11.441406 58.925781 C 5.433594 58.929688 0.542969 63.816406 0.542969 69.824219 Z M 0.542969 69.824219 " fill-opacity="1" fill-rule="nonzero"/></g><g clip-path="url(#5c13b790cf)"><path fill="#000000" d="M 0.542969 40.570312 C 0.542969 40.859375 0.5625 41.144531 0.585938 41.425781 C 1.027344 35.820312 5.722656 31.386719 11.4375 31.386719 L 82.042969 31.386719 L 82.042969 29.671875 L 11.441406 29.671875 C 5.433594 29.675781 0.542969 34.5625 0.542969 40.570312 Z M 0.542969 40.570312 " fill-opacity="1" fill-rule="nonzero"/></g><g clip-path="url(#f274656a75)"><path fill="#000000" d="M 11.441406 0.421875 C 5.433594 0.421875 0.546875 5.308594 0.546875 11.316406 C 0.546875 11.605469 0.566406 11.890625 0.589844 12.171875 C 1.027344 6.566406 5.722656 2.132812 11.441406 2.132812 L 82.042969 2.132812 L 82.042969 0.417969 L 11.441406 0.417969 Z M 11.441406 0.421875 " fill-opacity="1" fill-rule="nonzero"/></g></g></g></g><path fill="#e6b187" d="M 112.042969 136.894531 L 39.789062 136.894531 L 39.789062 136.523438 L 112.042969 136.523438 Z M 112.042969 141.128906 L 39.789062 141.128906 L 39.789062 141.5 L 112.042969 141.5 Z M 112.042969 145.734375 L 39.789062 145.734375 L 39.789062 146.105469 L 112.042969 146.105469 Z M 112.042969 165.777344 L 39.789062 165.777344 L 39.789062 166.148438 L 112.042969 166.148438 Z M 112.042969 170.382812 L 39.789062 170.382812 L 39.789062 170.753906 L 112.042969 170.753906 Z M 112.042969 174.988281 L 39.789062 174.988281 L 39.789062 175.359375 L 112.042969 175.359375 Z M 112.042969 195.03125 L 39.789062 195.03125 L 39.789062 195.402344 L 112.042969 195.402344 Z M 112.042969 199.636719 L 39.789062 199.636719 L 39.789062 200.007812 L 112.042969 200.007812 Z M 112.042969 204.242188 L 39.789062 204.242188 L 39.789062 204.613281 L 112.042969 204.613281 Z M 112.042969 204.242188 " fill-opacity="1" fill-rule="nonzero"/><g mask="url(#3b2ac6d250)"><g transform="matrix(1, 0, 0, 1, 91, 136)"><g clip-path="url(#7885467893)"><g clip-path="url(#5180550139)"><path fill="#000000" d="M 15.613281 72.046875 L 8.429688 65.828125 L 1.242188 72.046875 L 1.242188 0.523438 L 15.613281 0.523438 Z M 15.613281 72.046875 " fill-opacity="1" fill-rule="nonzero"/></g></g></g></g><path fill="#e6b187" d="M 105.015625 206.21875 L 97.832031 200.003906 L 90.644531 206.21875 L 90.644531 136.523438 L 105.015625 136.523438 Z M 105.015625 206.21875 " fill-opacity="1" fill-rule="nonzero"/><g fill="#428a9b" fill-opacity="1"><g transform="translate(114.571739, 205.605394)"><g><path d="M 6.824219 0 L 46.144531 0 C 69.648438 0 80.589844 -5.308594 80.589844 -22.53125 C 80.589844 -35.417969 73.222656 -40.621094 51.019531 -41.8125 L 51.019531 -43.328125 C 72.355469 -44.519531 78.636719 -50.476562 78.636719 -62.609375 C 78.636719 -79.289062 65.964844 -82.644531 44.410156 -82.644531 L 6.824219 -82.644531 C 7.039062 -71.382812 7.367188 -52.101562 7.367188 -41.269531 C 7.367188 -32.496094 7.039062 -8.558594 6.824219 0 Z M 27.835938 -48.09375 L 27.835938 -69.214844 L 42.027344 -69.214844 C 51.667969 -69.214844 56.867188 -66.617188 56.867188 -58.273438 C 56.867188 -50.800781 52.210938 -48.09375 42.027344 -48.09375 Z M 27.835938 -15.054688 L 27.835938 -36.828125 L 42.027344 -36.828125 C 53.507812 -36.828125 59.25 -34.226562 59.25 -26.320312 C 59.25 -17.980469 54.375 -15.054688 42.785156 -15.054688 Z M 27.835938 -15.054688 "/></g></g></g><g fill="#428a9b" fill-opacity="1"><g transform="translate(198.932681, 205.605394)"><g><path d="M 22.3125 0 L 43.867188 0 C 43.652344 -12.78125 43.542969 -25.671875 43.542969 -38.5625 C 43.542969 -43.761719 43.652344 -60.984375 43.761719 -66.722656 C 50.691406 -66.722656 60.007812 -66.617188 66.617188 -66.398438 L 66.617188 -82.644531 L -0.109375 -82.644531 L -0.109375 -66.398438 C 6.933594 -66.617188 15.8125 -66.722656 22.53125 -66.722656 C 22.636719 -59.464844 22.746094 -49.285156 22.746094 -40.402344 C 22.746094 -27.730469 22.53125 -13.429688 22.3125 0 Z M 22.3125 0 "/></g></g></g><g fill="#428a9b" fill-opacity="1"><g transform="translate(265.316821, 205.605394)"><g><path d="M 42.351562 1.300781 C 62.609375 1.300781 77.230469 -7.582031 77.230469 -23.613281 C 77.230469 -36.9375 71.164062 -44.84375 42.242188 -46.359375 C 30.761719 -47.875 26.972656 -50.257812 26.972656 -57.300781 C 26.972656 -61.199219 28.378906 -64.339844 30.4375 -67.046875 C 32.710938 -68.457031 36.9375 -68.890625 39.96875 -68.890625 C 52.535156 -68.890625 54.59375 -62.824219 56.109375 -53.402344 L 77.230469 -54.917969 C 74.738281 -74.304688 64.015625 -83.945312 40.835938 -83.945312 C 20.6875 -83.945312 5.742188 -76.039062 5.742188 -59.359375 C 5.742188 -45.492188 14.730469 -36.070312 40.621094 -34.988281 C 53.292969 -33.578125 56.324219 -31.085938 56.324219 -24.589844 C 56.324219 -21.121094 55.457031 -18.304688 53.617188 -15.597656 C 51.234375 -13.757812 46.578125 -13.105469 42.675781 -13.105469 C 31.085938 -13.105469 27.730469 -19.820312 26.644531 -27.1875 L 3.683594 -25.347656 C 5.847656 -5.742188 18.523438 1.300781 42.351562 1.300781 Z M 42.351562 1.300781 "/></g></g></g></svg>